<svg width="215" height="63" viewBox="0 0 215 63" fill="none" xmlns="http://www.w3.org/2000/svg">
<path d="M123.557 48.8265V38.9714C123.564 34.9742 124.739 31.0665 126.939 27.7305C129.495 23.7557 132.663 21.7696 136.442 21.7722C141.555 21.7722 144.111 24.4813 144.111 29.8996C144.111 33.9153 143.108 37.1146 141.101 39.4974C139.682 41.1892 137.958 43.0409 135.928 45.0526L142.447 49.1489C146.778 44.4294 148.942 39.5089 148.939 34.3875C148.939 30.2925 147.699 26.7822 145.219 23.8568C142.581 20.7395 139.258 19.1821 135.249 19.1846C132.296 19.1846 129.484 20.1892 126.812 22.1983L123.802 24.4634V19.3919L118 15V45.9126L123.557 48.8265Z" fill="url(#paint0_linear_430_80)"/>
<path d="M55.4666 49.2327V39.3777C55.4736 35.3805 56.6494 31.4728 58.8489 28.1368C61.4055 24.162 64.573 22.1759 68.3516 22.1785C73.4646 22.1785 76.0212 24.8876 76.0212 30.3059C76.0212 34.3216 75.0177 37.5208 73.0109 39.9037C71.592 41.5954 69.8676 43.4472 67.8377 45.4589L74.3569 49.5552C78.6876 44.8356 80.853 39.9152 80.853 34.7938C80.853 30.6987 79.6118 27.1885 77.1294 24.2631C74.4911 21.1457 71.1676 19.5883 67.159 19.5909C64.201 19.5909 61.3889 20.5955 58.7224 22.6046L55.7121 24.8697V19.7982L49.9215 15.4062V46.3188L55.4666 49.2327Z" fill="url(#paint1_linear_430_80)"/>
<path d="M210.239 15.4064V11.3446H160.486V4.22303L154.401 0V11.3446H35.0616L37.9377 15.4064H39.6864V26.6204C38.5589 27.4604 37.1573 27.8454 35.7595 27.6992C34.6847 27.6113 33.6233 27.4014 32.5958 27.0734C31.8825 26.8584 31.1578 26.6051 30.4253 26.3325C30.4023 26.1444 30.3946 26.106 30.3716 25.9179C40.7831 18.2665 25.9731 -0.310967 13.3068 13.8976L18.292 16.0897C27.1581 5.81626 34.8622 21.3263 22.7596 23.0692L22.3032 28.6244C27.9289 29.2042 32.0014 33.4003 29.4436 39.0131C27.6413 42.4414 22.5026 43.0173 19.2545 41.6007C17.3371 40.6178 15.8991 38.6829 14.6796 36.7941C11.2053 31.8032 7.9227 21.0537 0 24.125L0.602064 25.5762C5.93627 24.5243 7.53155 31.4807 9.32624 35.1855C11.0097 38.9517 12.9348 43.4319 16.8233 45.839C24.2206 50.4805 35.6637 45.6855 35.146 36.3027C35.2799 34.9283 35.1391 33.541 34.7318 32.2217C34.889 32.2524 35.0424 32.2908 35.2035 32.3177C36.692 32.5765 38.2178 32.5269 39.6864 32.1718V46.3189L45.0551 49.2175V15.4064H88.883V24.1864C88.8221 24.2502 88.7657 24.3182 88.7143 24.3899C88.1506 24.8851 87.7211 25.2614 87.4297 25.5071V28.0217C88.7079 27.5687 90.0271 27.0568 91.3872 26.4861C94.5538 25.1926 97.9377 24.5151 101.358 24.4897C102.981 24.4436 104.259 24.6343 105.192 25.0617L105.472 25.2038C106.276 25.6615 106.941 26.3264 107.401 27.1292C107.86 27.932 108.096 28.8434 108.084 29.7685V30.7129C106.12 29.2233 103.527 28.4786 100.303 28.4786C94.9804 28.4786 90.5269 30.2701 86.9426 33.8533C85.0943 35.7038 84.1701 37.5657 84.1701 39.4392C84.1733 41.1182 84.8007 42.7359 85.9303 43.9771C88.3436 46.7771 91.7707 48.1758 96.2114 48.1732C99.1345 48.2362 102.035 47.646 104.702 46.4456C105.469 46.0847 106.446 45.5549 107.643 44.8562C107.934 45.0597 108.084 45.5204 108.084 46.246C111.195 47.5257 112.985 48.259 113.453 48.4458V35.3928C113.453 29.6393 112.968 25.8129 111.999 23.9139C110.552 21.0729 107.294 19.6512 102.224 19.6486C100.988 19.6514 99.755 19.7645 98.5391 19.9864C95.6706 20.4983 94.0281 20.8374 93.6114 21.0038L93.5653 20.9692C93.5318 20.9288 93.4904 20.8956 93.4435 20.8719C93.3967 20.8481 93.3455 20.8342 93.2931 20.831V15.4064H154.381V40.1149C154.406 41.4413 154.805 42.7336 155.532 43.8427C157.288 46.7144 159.745 48.1604 162.902 48.1809C168.335 48.2039 172.349 45.3374 174.944 39.5813L168.164 35.7038C168.164 42.6577 166.484 46.1334 163.125 46.1308C162.381 46.1308 161.752 45.7469 161.23 44.9445C160.759 44.2942 160.499 43.5139 160.486 42.7102V15.4064H183.304V24.1864C183.243 24.2502 183.186 24.3182 183.135 24.3899C182.571 24.8851 182.142 25.2614 181.85 25.5071V28.0217C183.128 27.5687 184.448 27.0568 185.808 26.4861C188.974 25.1918 192.358 24.5142 195.778 24.4897C197.404 24.4436 198.681 24.6356 199.613 25.0617L199.897 25.2038C200.693 25.6645 201.352 26.3298 201.806 27.1309C202.26 27.9321 202.492 28.84 202.478 29.7608V30.7129C200.519 29.2233 197.927 28.4786 194.701 28.4786C189.378 28.4786 184.924 30.2701 181.34 33.8533C179.492 35.7038 178.568 37.5657 178.568 39.4392C178.571 41.1175 179.197 42.7346 180.324 43.9771C182.74 46.7771 186.168 48.1758 190.609 48.1732C193.531 48.2357 196.43 47.6455 199.095 46.4456C199.862 46.0847 200.844 45.5549 202.04 44.8562C202.332 45.0597 202.478 45.5204 202.478 46.246C205.591 47.5257 207.381 48.259 207.846 48.4458V35.3928C207.846 29.6393 207.361 25.8129 206.389 23.9139C204.947 21.0729 201.69 19.6512 196.618 19.6486C195.381 19.6514 194.146 19.7645 192.929 19.9864C190.06 20.5086 188.423 20.8464 188.001 21.0038L187.959 20.9692C187.926 20.9288 187.884 20.8956 187.837 20.8719C187.79 20.8481 187.739 20.8342 187.687 20.831V15.4064H210.239ZM103.563 41.0785C100.094 43.1771 96.1107 44.2672 92.0583 44.2266C88.814 44.2266 86.9541 43.4038 86.4786 41.7581C86.4786 40.8751 87.0538 39.7464 88.2043 38.372C91.0651 34.9398 94.8756 33.2237 99.6358 33.2237C101.312 33.2936 102.967 33.6252 104.541 34.2065C106.905 34.9974 108.089 35.8932 108.092 36.8939C108.094 37.8946 106.585 39.2895 103.563 41.0785ZM197.964 41.0785C194.496 43.1771 190.512 44.2672 186.46 44.2266C183.21 44.2266 181.35 43.4038 180.88 41.7581C180.88 40.8751 181.454 39.7464 182.602 38.372C185.47 34.9347 189.283 33.216 194.041 33.216C195.717 33.2854 197.372 33.617 198.946 34.1988C201.316 34.9897 202.499 35.8855 202.497 36.8862C202.494 37.887 200.983 39.2844 197.964 41.0785Z" fill="url(#paint2_linear_430_80)"/>
<path d="M47.2984 46.0237L46.3091 48.7341L45.0551 48.02C44.361 47.6361 43.6899 47.2215 43.0073 46.8107C41.9187 46.1543 40.8699 45.4339 39.8666 44.6531L39.6864 44.5034C39.2348 44.1409 38.8141 43.7415 38.4285 43.3094C37.9336 42.7834 37.5639 42.1521 37.3471 41.4628C37.2355 41.071 37.212 40.6593 37.2781 40.2573C37.3126 40.0687 37.36 39.8827 37.42 39.7006C37.4759 39.5333 37.5412 39.3692 37.6156 39.2092C37.897 38.6091 38.2347 38.0371 38.6241 37.5008C38.9693 37.0171 39.3259 36.5487 39.6864 36.0957V38.595C39.3774 38.9663 39.1124 39.3721 38.8964 39.8043C38.8391 39.9187 38.7892 40.0367 38.7468 40.1575C38.7065 40.2633 38.6756 40.3725 38.6548 40.4838C38.6234 40.6853 38.6378 40.8914 38.697 41.0866C38.8615 41.5591 39.1362 41.9856 39.4985 42.3304C39.5598 42.3919 39.6212 42.4533 39.6864 42.5109C40.0323 42.8368 40.4056 43.1322 40.8023 43.3939C41.7811 44.0401 42.8263 44.5794 43.92 45.0025C44.3035 45.1522 44.6869 45.2904 45.0704 45.4248C45.7986 45.6749 46.543 45.875 47.2984 46.0237Z" fill="url(#paint3_linear_430_80)"/>
<path d="M48.0271 27.557C48.0721 27.7962 48.0939 28.0392 48.0922 28.2826C48.091 28.5154 48.0718 28.7477 48.0347 28.9775C47.9575 29.3949 47.8286 29.8012 47.6512 30.1868C47.3515 30.8532 46.9647 31.4768 46.5008 32.0411C46.0853 32.5511 45.6384 33.0345 45.1625 33.4884L45.0244 33.619V28.9544C45.1458 28.707 45.186 28.4276 45.1394 28.1559C45.1183 28.0491 45.0794 27.9466 45.0244 27.8526C44.894 27.5992 44.6754 27.2883 44.4952 27.0042C43.8548 26.0802 43.15 25.2027 42.3861 24.3782C41.5846 23.4799 40.7524 22.5546 39.9663 21.5488L39.6557 21.138C38.9611 20.2281 38.3923 19.2286 37.9645 18.1665C37.6985 17.5013 37.5518 16.7943 37.5312 16.0781C37.5266 15.7225 37.5587 15.3674 37.6271 15.0185V14.957L37.9454 15.4062H39.115C39.094 15.6053 39.094 15.806 39.115 16.0051C39.1723 16.5089 39.3273 16.9966 39.5713 17.4409C39.6058 17.5024 39.6403 17.5676 39.6787 17.6291C40.2272 18.5223 40.8985 19.3339 41.6728 20.04C42.5126 20.8501 43.433 21.6217 44.3571 22.451L45.0589 23.096C45.793 23.7751 46.4571 24.5262 47.0415 25.338C47.5238 25.9991 47.8598 26.7556 48.0271 27.557Z" fill="url(#paint4_linear_430_80)"/>
<path d="M60.8084 15.4053H65.1532L64.1524 15.9543C63.6117 16.2499 63.0594 16.5455 62.4842 16.8181C61.8955 17.1159 61.2869 17.3725 60.6627 17.5859C60.5016 17.6396 60.3329 17.6857 60.1565 17.7279C59.9801 17.7702 59.8037 17.8086 59.6158 17.8393C59.2675 17.891 58.9168 17.9243 58.5651 17.9391C57.8524 17.9615 57.1398 17.8931 56.4444 17.7356C55.1254 17.4129 53.8686 16.8746 52.7247 16.1424C52.3412 15.9044 51.9577 15.6625 51.5742 15.4206C50.9108 14.9868 50.278 14.5492 49.6568 14.1192L48.1996 13.1095L47.4748 12.6104C47.237 12.453 47.0223 12.3033 46.7845 12.1651C46.2523 11.8361 45.6867 11.5645 45.0972 11.355C44.6888 11.2089 44.2658 11.1072 43.8356 11.0517C43.0917 10.9545 42.3354 11.0592 41.6459 11.355H39.23C39.457 11.0782 39.7071 10.8214 39.9778 10.5872C41.0736 9.6736 42.4378 9.14376 43.8624 9.07841C45.254 9.00852 46.6441 9.24439 47.935 9.76945C48.2533 9.8923 48.5677 10.0382 48.863 10.1764C49.1583 10.3146 49.4306 10.4567 49.7105 10.6064C50.1438 10.8367 50.5733 11.0824 50.9875 11.3397C51.1064 11.4088 51.2214 11.4817 51.3364 11.5546C53.4571 12.8753 55.2863 14.4685 57.1692 15.1788C57.4136 15.2693 57.6634 15.345 57.917 15.4053C58.1573 15.4641 58.4027 15.5102 58.6533 15.5435C58.9079 15.573 59.1639 15.5896 59.4202 15.5934C59.5415 15.6008 59.6632 15.6008 59.7845 15.5934C59.9131 15.585 60.0411 15.5697 60.168 15.5473C60.3837 15.5108 60.5975 15.4634 60.8084 15.4053Z" fill="url(#paint5_linear_430_80)"/>
<path d="M100.088 15.4052H107.451L105.369 16.173C104.218 16.5953 103.049 17.0099 101.849 17.3861C101.25 17.5755 100.633 17.7432 99.9964 17.8891C99.3176 18.0508 98.6232 18.1383 97.9256 18.1501C96.5647 18.1419 95.2131 17.9243 93.9182 17.5052L93.3085 17.3132C92.2807 16.9715 91.299 16.5454 90.3442 16.1346C89.8495 15.9081 89.3586 15.6816 88.8754 15.4512L88.7527 15.3936C87.0616 14.5874 85.4356 13.7659 83.8173 13.0441C82.2177 12.2723 80.531 11.6961 78.7937 11.328C78.343 11.2429 77.8868 11.1903 77.4286 11.1706C76.6468 11.1477 75.8647 11.2004 75.0932 11.328H70.2651C72.451 10.3106 74.679 9.24337 77.302 8.84794C78.6407 8.67894 79.9974 8.71648 81.3247 8.95928C82.6083 9.18245 83.8653 9.53885 85.0751 10.0227C86.0875 10.4066 87.0577 10.8635 88.0049 11.328C89.2819 11.9538 90.5167 12.6141 91.7362 13.2476C93.5769 14.169 95.4138 15.0673 97.22 15.4128C97.4846 15.4627 97.7492 15.5011 98.0138 15.5242C98.5351 15.5702 99.0599 15.5574 99.5784 15.4858L100.088 15.4052Z" fill="url(#paint6_linear_430_80)"/>
<path d="M87.05 20.3483C87.2379 19.9068 87.3913 19.5805 88.722 19.4423C91.5828 19.2043 92.0429 17.7109 91.4716 16.586C89.5733 13.1423 86.0568 18.114 87.05 20.3483Z" fill="url(#paint7_linear_430_80)"/>
<path d="M163.424 15.4065H171.331C170.564 15.6867 169.774 15.9516 168.981 16.1743C166.598 16.9166 164.162 17.4774 161.694 17.852L160.486 18.0132L159.838 18.1015L157.975 18.282C156.786 18.3968 155.591 18.4404 154.397 18.4125H154.159C152.889 18.3884 151.621 18.291 150.363 18.1207C149.105 17.9556 147.855 17.7368 146.627 17.4604C144.241 16.9216 141.889 16.2356 139.587 15.4065C137.217 14.5657 134.912 13.6328 132.661 12.7191C131.553 12.2776 130.456 11.8515 129.363 11.5175C129.156 11.4522 128.949 11.3869 128.742 11.3293C127.887 11.0678 127.009 10.8929 126.119 10.8072C124.979 10.7325 123.834 10.7736 122.702 10.9301C121.897 11.0299 121.09 11.1579 120.282 11.314H114.093C115.627 10.7957 117.161 10.2774 118.714 9.77833C121.08 9.05274 123.458 8.30411 126.15 8.12367C128.911 8.01234 131.426 8.67267 133.819 9.35219C135.813 9.94341 137.727 10.6268 139.617 11.3101L140.768 11.7171C143.03 12.5271 145.274 13.3065 147.536 13.9515C148.687 14.2624 149.807 14.558 150.949 14.8037C152.092 15.0494 153.208 15.226 154.343 15.3758H154.401C155.556 15.5208 156.718 15.5964 157.883 15.6023H159.67L160.49 15.5677L161.453 15.5293C162.112 15.537 162.768 15.4833 163.424 15.4065Z" fill="url(#paint8_linear_430_80)"/>
<path d="M210.185 15.9924C210.119 16.4007 209.916 16.7743 209.61 17.052C209.373 17.2665 209.089 17.424 208.782 17.5127C208.354 17.6303 207.908 17.6655 207.467 17.6164C207.103 17.5816 206.742 17.5161 206.389 17.4206C205.741 17.2398 205.112 16.9982 204.51 16.6988C203.744 16.3251 203.008 15.8926 202.309 15.405H207.294C207.396 15.4104 207.499 15.4104 207.601 15.405H207.662C207.4 15.1294 207.11 14.8823 206.796 14.6679C205.87 14.0517 204.873 13.549 203.827 13.1707C202.748 12.767 201.642 12.4386 200.518 12.1878C199.379 11.9248 198.227 11.7198 197.067 11.5736C196.346 11.4776 195.617 11.4008 194.888 11.3394C194.44 11.301 193.987 11.2703 193.535 11.2434C192.35 11.1705 191.157 11.1398 189.965 11.1513C188.672 11.1513 187.376 11.2242 186.088 11.3394H177.751C178.134 11.2127 178.483 11.0899 178.855 10.9747C180.036 10.5908 181.252 10.2798 182.475 10.0034C184.905 9.49019 187.368 9.14513 189.846 8.97066C191.088 8.8862 192.331 8.84013 193.581 8.84397C194.831 8.84781 196.081 8.92843 197.331 9.05128C199.871 9.28499 202.367 9.8676 204.748 10.7827C205.166 10.9516 205.58 11.1359 205.986 11.3394C206.167 11.4277 206.343 11.5198 206.519 11.6158C207.116 11.931 207.688 12.2916 208.23 12.6946C208.846 13.1405 209.376 13.6946 209.794 14.3301C209.925 14.5391 210.029 14.7635 210.105 14.9981C210.148 15.1306 210.179 15.2668 210.197 15.405C210.22 15.6004 210.216 15.7981 210.185 15.9924Z" fill="url(#paint9_linear_430_80)"/>
<path d="M48.3991 4.64648C48.3646 4.70791 47.8162 5.62546 45.3773 6.08231C42.6201 6.60443 42.3094 8.10169 42.992 9.15361C45.1664 12.2863 48.7021 7.32619 48.3991 4.64648Z" fill="url(#paint10_linear_430_80)"/>
<path d="M143.989 16.6883C143.03 17.1989 142.62 18.4811 144.518 20.059C145.463 20.8299 146.535 21.4301 147.686 21.8327C147.045 20.0398 147.011 15.1872 143.989 16.6883Z" fill="url(#paint11_linear_430_80)"/>
<path d="M91.4294 16.5656C90.6624 16.9956 90.3595 18.036 91.9241 19.2721C92.7022 19.8742 93.5795 20.3355 94.5164 20.635C93.9527 19.1954 93.8376 15.2871 91.4294 16.5656Z" fill="url(#paint12_linear_430_80)"/>
<path d="M76.8226 6.03483C75.4251 5.95086 74.0239 6.11728 72.6848 6.52623C74.4833 7.75475 77.7813 12.2504 79.5875 8.8297C80.1473 7.67797 79.6527 6.22294 76.8226 6.03483Z" fill="url(#paint13_linear_430_80)"/>
<path d="M171.711 19.8566C170.84 18.2135 167.059 13.7562 165.656 16.9888C165.23 18.0407 165.763 19.3422 168.34 19.323C170.307 19.323 171.358 19.68 171.638 19.8144L171.711 19.8566Z" fill="url(#paint14_linear_430_80)"/>
<path d="M119.619 6.61033C118.02 6.0575 117.276 5.45859 117.088 5.26664L117.038 5.21289C117.276 6.79077 119.067 11.4937 121.13 9.27467C121.774 8.5414 121.717 7.33592 119.619 6.61033Z" fill="url(#paint15_linear_430_80)"/>
<path d="M84.3656 6.26495C84.124 6.38781 83.2152 6.72565 81.4665 6.74484C79.1925 6.76788 78.7438 7.92345 79.1311 8.84484C80.4196 11.6743 83.6869 7.6931 84.4308 6.22656L84.3656 6.26495Z" fill="url(#paint16_linear_430_80)"/>
<path d="M52.6173 16.0824C51.7162 16.4241 51.2176 17.5067 52.717 19.1038C53.8675 20.3247 54.251 21.1923 54.32 21.4418C54.32 21.4879 54.32 21.5148 54.32 21.5148C54.8377 20.0214 55.4397 15.0881 52.6173 16.0824Z" fill="url(#paint17_linear_430_80)"/>
<path d="M214.365 13.0018C212.755 11.5468 207.551 13.1208 209.936 15.6892C210.726 16.4954 212.118 16.5261 213.131 14.1535C213.618 13.0709 213.94 13.0517 214.365 13.0018Z" fill="url(#paint18_linear_430_80)"/>
<path d="M180.581 4.57617C178.882 6.65697 181.129 12.9877 184.151 9.89335C185.098 8.87214 185.056 7.14838 182.088 6.05423C180.711 5.49756 180.65 5.10213 180.581 4.57617Z" fill="url(#paint19_linear_430_80)"/>
<path d="M148.687 10.1426C147.03 10.9104 146.562 15.4943 149.335 14.4693C150.217 14.1161 150.696 13.0373 149.189 11.4824C148.499 10.7492 148.576 10.4843 148.687 10.1426Z" fill="url(#paint20_linear_430_80)"/>
<path d="M48.2648 33.8654C49.2465 32.848 48.3338 29.4312 46.6158 30.9285C46.0751 31.4237 46.0253 32.3297 47.5362 33.0361C48.238 33.3778 48.2533 33.589 48.2648 33.8654Z" fill="url(#paint21_linear_430_80)"/>
<path d="M48.0424 51.935C49.6147 50.5452 48.6751 45.3816 45.9563 47.3895C45.0973 48.0575 44.9132 49.3897 47.0645 50.6182C48.0577 51.2094 48.0539 51.5242 48.0424 51.935Z" fill="url(#paint22_linear_430_80)"/>
<path d="M214.592 22.125C214.523 22.0789 213.537 21.3878 213.207 18.6122C212.824 15.4641 211.179 15.0111 209.963 15.6868C206.239 17.8904 211.558 22.267 214.592 22.125Z" fill="url(#paint23_linear_430_80)"/>
<path d="M187.783 5.49023C187.783 5.54398 187.48 6.31948 185.693 7.02588C183.672 7.7937 183.656 8.99151 184.312 9.68255C186.414 11.7672 188.388 7.48274 187.783 5.49023Z" fill="url(#paint24_linear_430_80)"/>
<path d="M161.733 23.9631C161.733 23.8864 161.936 22.6924 164.298 21.1951C166.983 19.5021 166.66 17.8052 165.525 16.999C161.928 14.588 160.295 21.2834 161.733 23.9631Z" fill="url(#paint25_linear_430_80)"/>
<path d="M102.389 17.1251C102.174 17.8929 102.638 18.7414 104.418 18.5379C105.295 18.4308 106.146 18.1709 106.933 17.7701C105.664 17.2057 103.106 14.7871 102.389 17.1251Z" fill="url(#paint26_linear_430_80)"/>
<path d="M196.342 11.4134C195.015 9.89693 193.73 12.9836 193.542 14.0317L193.573 13.9971C194.08 13.6015 194.662 13.314 195.283 13.1525C196.676 12.711 196.725 11.9009 196.342 11.4134Z" fill="url(#paint27_linear_430_80)"/>
<path d="M48.8093 44.9683C48.3154 45.2788 47.7635 45.4852 47.1872 45.5749C45.8719 45.8474 45.7453 46.5654 46.0713 47.0568C47.1335 48.5463 48.5716 45.8705 48.8362 44.9414L48.8093 44.9683Z" fill="url(#paint28_linear_430_80)"/>
<path d="M138.176 5.69336C137.949 6.13486 137.773 6.46118 136.389 6.51109C133.428 6.55716 132.849 8.06593 133.363 9.2599C135.062 12.9416 139.023 8.06209 138.176 5.69336Z" fill="url(#paint29_linear_430_80)"/>
<path d="M95.3716 12.0898C95.222 12.3087 95.107 12.4738 94.3707 12.4123C92.7946 12.2511 92.3958 13.0112 92.5952 13.6792C93.2624 15.7408 95.6707 13.399 95.3716 12.0898Z" fill="url(#paint30_linear_430_80)"/>
<path d="M39.2722 6.60352C38.7929 8.477 42.1828 11.9245 43.2144 8.98377C43.5212 8.03167 42.969 6.91832 40.6988 7.09876C39.6365 7.16403 39.4755 6.91064 39.2722 6.60352Z" fill="url(#paint31_linear_430_80)"/>
<path d="M11.5913 55.945H13.0437V62.9047H11.5913V55.945ZM19.8761 55.945H21.3028V62.9047H19.8916L16.7859 58.3992V62.9047H15.3334V55.945H16.7653L19.8761 60.4187V55.945ZM28.1403 55.945H29.567V62.9047H28.1558L25.0501 58.3992V62.9047H23.5976V55.945H25.0295L28.1403 60.4187V55.945ZM31.7125 59.4222C31.7125 58.3939 32.0421 57.5458 32.7014 56.8779C33.3641 56.2065 34.1487 55.8708 35.0551 55.8708C36.0578 55.8708 36.887 56.2083 37.5428 56.8832C38.1986 57.5546 38.5266 58.4045 38.5266 59.4328C38.5266 60.4541 38.2021 61.3022 37.5531 61.9771C36.9042 62.6521 36.0869 62.9896 35.1015 62.9896C34.1161 62.9896 33.304 62.6538 32.6653 61.9824C32.0301 61.311 31.7125 60.4576 31.7125 59.4222ZM35.1221 57.2596C34.5556 57.249 34.0989 57.4504 33.7521 57.8638C33.4053 58.2773 33.2319 58.8109 33.2319 59.4646C33.2319 60.083 33.4087 60.5954 33.7624 61.0018C34.1161 61.4082 34.5624 61.6114 35.1015 61.6114C35.668 61.6114 36.1247 61.4117 36.4716 61.0124C36.8218 60.6096 36.9969 60.0795 36.9969 59.4222C36.9969 58.7756 36.8252 58.2561 36.4818 57.8638C36.1419 57.4716 35.6887 57.2702 35.1221 57.2596ZM39.8686 55.945H41.3416L43.0515 60.5725L44.7615 55.945H46.2397L43.6851 62.9047H42.418L39.8686 55.945ZM49.6213 55.945H50.7492L53.5099 62.9047H52.0471L51.496 61.5372H48.9054L48.3749 62.9047H46.9173L49.6213 55.945ZM50.1878 58.2243L49.3998 60.2756H51.0016L50.1878 58.2243ZM54.4399 55.945H58.9877V57.4239H57.4374V62.9047H55.9798V57.4239H54.4399V55.945ZM60.8911 55.945H62.3433V62.9047H60.8911V55.945ZM64.4836 59.4222C64.4836 58.3939 64.8136 57.5458 65.4726 56.8779C66.1356 56.2065 66.9202 55.8708 67.8264 55.8708C68.8289 55.8708 69.6582 56.2083 70.3142 56.8832C70.9702 57.5546 71.2977 58.4045 71.2977 59.4328C71.2977 60.4541 70.9732 61.3022 70.3243 61.9771C69.6753 62.6521 68.8581 62.9896 67.8731 62.9896C66.8876 62.9896 66.0754 62.6538 65.4364 61.9824C64.8015 61.311 64.4836 60.4576 64.4836 59.4222ZM67.8937 57.2596C67.3271 57.249 66.87 57.4504 66.5234 57.8638C66.1768 58.2773 66.003 58.8109 66.003 59.4646C66.003 60.083 66.1798 60.5954 66.534 61.0018C66.8876 61.4082 67.3336 61.6114 67.8731 61.6114C68.4391 61.6114 68.8962 61.4117 69.2428 61.0124C69.5929 60.6096 69.7682 60.0795 69.7682 59.4222C69.7682 58.7756 69.5964 58.2561 69.2534 57.8638C68.9133 57.4716 68.4602 57.2702 67.8937 57.2596ZM77.9862 55.945H79.4127V62.9047H78.0013L74.8956 58.3992V62.9047H73.4435V55.945H74.875L77.9862 60.4187V55.945ZM85.5216 55.945H86.9742V62.9047H85.5216V55.945ZM93.8064 55.945H95.2334V62.9047H93.822L90.7163 58.3992V62.9047H89.2642V55.945H90.6957L93.8064 60.4187V55.945ZM101.396 56.5758L100.49 57.5988C100.012 57.309 99.6692 57.1642 99.4597 57.1642C99.298 57.1642 99.1594 57.2278 99.0423 57.355C98.9258 57.4787 98.8675 57.6271 98.8675 57.8002C98.8675 58.143 99.1694 58.4398 99.7737 58.6907C100.217 58.8851 100.552 59.0618 100.778 59.2208C101.005 59.3763 101.194 59.5936 101.345 59.8728C101.499 60.1519 101.576 60.4541 101.576 60.7792C101.576 61.3764 101.341 61.8958 100.871 62.3375C100.404 62.7793 99.851 63.0002 99.2126 63.0002C98.5119 63.0002 97.8203 62.6609 97.1366 61.9824L98.0945 60.8322C98.524 61.2881 98.9258 61.516 99.3 61.516C99.4748 61.516 99.6431 61.4365 99.8048 61.2775C99.966 61.1149 100.047 60.9453 100.047 60.7686C100.047 60.4046 99.6742 60.0848 98.9293 59.8092C98.5034 59.6502 98.201 59.5017 98.0227 59.3639C97.8438 59.2226 97.6932 59.0194 97.5696 58.7543C97.4491 58.4858 97.3893 58.2119 97.3893 57.9328C97.3893 57.3143 97.5847 56.8126 97.9765 56.4274C98.3677 56.0422 98.8791 55.8496 99.511 55.8496C100.259 55.8496 100.888 56.0917 101.396 56.5758ZM103.66 55.945H105.972C106.594 55.945 107.096 56.1323 107.477 56.5069C107.858 56.8779 108.048 57.3674 108.048 57.9752C108.048 58.3745 107.954 58.7543 107.765 59.1148C107.58 59.4717 107.298 59.7385 106.92 59.9152C106.543 60.0919 106.22 60.1837 105.952 60.1908L105.108 60.212V62.9047H103.66V55.945ZM105.087 57.196V58.977H105.653C105.897 58.977 106.105 58.8869 106.276 58.7066C106.452 58.5264 106.539 58.3126 106.539 58.0653C106.539 57.7826 106.442 57.5635 106.246 57.408C106.05 57.2525 105.772 57.1748 105.411 57.1748L105.087 57.196ZM110.163 55.945H111.615V62.9047H110.163V55.945ZM113.967 55.945H116.192C116.868 55.945 117.402 56.1288 117.793 56.4963C118.188 56.8638 118.386 57.3603 118.386 57.9858C118.386 58.3427 118.295 58.7137 118.113 59.0989C117.935 59.4841 117.603 59.7862 117.119 60.0053L119.009 62.9047H117.34L115.589 60.212H115.425V62.9047H113.967V55.945ZM115.435 57.1854V58.9982H115.749C116.508 58.9982 116.887 58.6784 116.887 58.0388C116.887 57.7773 116.787 57.5705 116.588 57.4186C116.393 57.2631 116.12 57.1854 115.77 57.1854H115.435ZM121.139 55.945H124.946V57.3232H122.597V58.7278H124.946V60.0848H122.597V61.5266H124.946V62.9047H121.139V55.945ZM127.158 55.945H129.465C130.451 55.945 131.244 56.2648 131.845 56.9044C132.446 57.544 132.746 58.3868 132.746 59.4328C132.746 60.4823 132.435 61.3234 131.814 61.9559C131.196 62.5885 130.372 62.9047 129.342 62.9047H127.158V55.945ZM128.626 57.2596V61.5584H129.202C129.8 61.5584 130.291 61.3905 130.676 61.0548C131.06 60.7191 131.252 60.159 131.252 59.3745C131.252 58.9187 131.159 58.5158 130.974 58.166C130.789 57.8126 130.519 57.5741 130.165 57.4504C129.815 57.3232 129.481 57.2596 129.161 57.2596H128.626ZM138.237 55.945H142.785V57.4239H141.234V62.9047H139.777V57.4239H138.237V55.945ZM144.771 55.945H148.577V57.3232H146.228V58.7278H148.577V60.0848H146.228V61.5266H148.577V62.9047H144.771V55.945ZM155.873 56.3161V58.0176C155.141 57.5617 154.501 57.3338 153.951 57.3338C153.402 57.3338 152.963 57.5281 152.633 57.9168C152.303 58.3056 152.139 58.8286 152.139 59.4858C152.139 60.1078 152.312 60.606 152.659 60.9806C153.006 61.3516 153.469 61.5372 154.049 61.5372C154.558 61.5372 155.165 61.3269 155.873 60.9064V62.592C155.08 62.8641 154.419 63.0002 153.89 63.0002C152.98 63.0002 152.207 62.6574 151.572 61.9718C150.937 61.2827 150.619 60.4435 150.619 59.454C150.619 58.4469 150.942 57.5953 151.588 56.8991C152.237 56.1995 153.025 55.8496 153.951 55.8496C154.549 55.8496 155.19 56.0051 155.873 56.3161ZM157.962 55.945H159.419V58.6271H161.814V55.945H163.266V62.9047H161.814V60.1378H159.419V62.9047H157.962V55.945ZM170.14 55.945H171.567V62.9047H170.155L167.05 58.3992V62.9047H165.598V55.945H167.029L170.14 60.4187V55.945ZM173.712 59.4222C173.712 58.3939 174.042 57.5458 174.701 56.8779C175.364 56.2065 176.149 55.8708 177.055 55.8708C178.057 55.8708 178.887 56.2083 179.543 56.8832C180.199 57.5546 180.526 58.4045 180.526 59.4328C180.526 60.4541 180.202 61.3022 179.553 61.9771C178.904 62.6521 178.087 62.9896 177.101 62.9896C176.116 62.9896 175.304 62.6538 174.665 61.9824C174.03 61.311 173.712 60.4576 173.712 59.4222ZM177.122 57.2596C176.556 57.249 176.098 57.4504 175.752 57.8638C175.405 58.2773 175.232 58.8109 175.232 59.4646C175.232 60.083 175.408 60.5954 175.762 61.0018C176.116 61.4082 176.562 61.6114 177.101 61.6114C177.668 61.6114 178.125 61.4117 178.471 61.0124C178.821 60.6096 178.997 60.0795 178.997 59.4222C178.997 58.7756 178.825 58.2561 178.482 57.8638C178.142 57.4716 177.688 57.2702 177.122 57.2596ZM182.775 55.945H184.222V61.4046H186.215V62.9047H182.775V55.945ZM187.923 59.4222C187.923 58.3939 188.252 57.5458 188.912 56.8779C189.575 56.2065 190.359 55.8708 191.266 55.8708C192.268 55.8708 193.098 56.2083 193.754 56.8832C194.409 57.5546 194.737 58.4045 194.737 59.4328C194.737 60.4541 194.413 61.3022 193.764 61.9771C193.115 62.6521 192.297 62.9896 191.312 62.9896C190.326 62.9896 189.515 62.6538 188.876 61.9824C188.24 61.311 187.923 60.4576 187.923 59.4222ZM191.333 57.2596C190.766 57.249 190.309 57.4504 189.963 57.8638C189.616 58.2773 189.442 58.8109 189.442 59.4646C189.442 60.083 189.619 60.5954 189.973 61.0018C190.326 61.4082 190.773 61.6114 191.312 61.6114C191.879 61.6114 192.335 61.4117 192.682 61.0124C193.032 60.6096 193.208 60.0795 193.208 59.4222C193.208 58.7756 193.036 58.2561 192.692 57.8638C192.353 57.4716 191.899 57.2702 191.333 57.2596ZM202.702 57.4557L201.734 58.3886C201.532 58.0282 201.281 57.7596 200.983 57.5829C200.684 57.4027 200.371 57.3126 200.045 57.3126C199.516 57.3126 199.056 57.5193 198.665 57.9328C198.277 58.3462 198.083 58.8339 198.083 59.3957C198.083 59.9929 198.277 60.5 198.665 60.917C199.056 61.3305 199.526 61.5372 200.076 61.5372C200.375 61.5372 200.661 61.4594 200.936 61.3039C201.214 61.1484 201.437 60.8569 201.605 60.4293H200.004V59.0724H203.125V59.9735C203.125 60.4364 202.971 60.9347 202.661 61.4683C202.352 61.9983 201.945 62.387 201.441 62.6344C200.936 62.8782 200.426 63.0002 199.911 63.0002C198.977 63.0002 198.189 62.6521 197.547 61.9559C196.905 61.2598 196.584 60.3993 196.584 59.3745C196.584 58.4027 196.914 57.5723 197.573 56.8832C198.236 56.1941 199.032 55.8496 199.962 55.8496C201.151 55.8496 202.064 56.385 202.702 57.4557ZM204.704 55.945H206.316L207.563 58.1077L208.829 55.945H210.452L208.299 59.6502V62.9047H206.857V59.6502L204.704 55.945Z" fill="#001700"/>
<defs>
<linearGradient id="paint0_linear_430_80" x1="133.473" y1="15" x2="133.473" y2="49.1643" gradientUnits="userSpaceOnUse">
<stop stop-color="#001E00"/>
<stop offset="0.52" stop-color="#001B00"/>
<stop offset="0.96" stop-color="#001000"/>
<stop offset="1" stop-color="#000F00"/>
</linearGradient>
<linearGradient id="paint1_linear_430_80" x1="65.3949" y1="15.4062" x2="65.3949" y2="49.5705" gradientUnits="userSpaceOnUse">
<stop stop-color="#001E00"/>
<stop offset="0.52" stop-color="#001B00"/>
<stop offset="0.96" stop-color="#001000"/>
<stop offset="1" stop-color="#000F00"/>
</linearGradient>
<linearGradient id="paint2_linear_430_80" x1="105.12" y1="0" x2="105.12" y2="49.2175" gradientUnits="userSpaceOnUse">
<stop stop-color="#001E00"/>
<stop offset="0.52" stop-color="#001B00"/>
<stop offset="0.96" stop-color="#001000"/>
<stop offset="1" stop-color="#000F00"/>
</linearGradient>
<linearGradient id="paint3_linear_430_80" x1="38.2291" y1="39.0326" x2="45.8179" y2="45.6351" gradientUnits="userSpaceOnUse">
<stop stop-color="#681E12"/>
<stop offset="0.32" stop-color="#6B2013"/>
<stop offset="0.58" stop-color="#762618"/>
<stop offset="0.82" stop-color="#873020"/>
<stop offset="1" stop-color="#993B28"/>
</linearGradient>
<linearGradient id="paint4_linear_430_80" x1="39.2147" y1="14.9302" x2="47.563" y2="32.5176" gradientUnits="userSpaceOnUse">
<stop stop-color="#681E12"/>
<stop offset="0.03" stop-color="#6C2014"/>
<stop offset="0.3" stop-color="#8D3422"/>
<stop offset="0.44" stop-color="#993B28"/>
<stop offset="0.86" stop-color="#681E12"/>
</linearGradient>
<linearGradient id="paint5_linear_430_80" x1="39.2261" y1="13.4972" x2="65.1532" y2="13.4972" gradientUnits="userSpaceOnUse">
<stop stop-color="#681E12"/>
<stop offset="0.03" stop-color="#6C2014"/>
<stop offset="0.3" stop-color="#8D3422"/>
<stop offset="0.44" stop-color="#993B28"/>
<stop offset="0.86" stop-color="#681E12"/>
</linearGradient>
<linearGradient id="paint6_linear_430_80" x1="73.2218" y1="13.4587" x2="109.626" y2="13.4587" gradientUnits="userSpaceOnUse">
<stop stop-color="#681E12"/>
<stop offset="0.03" stop-color="#6C2014"/>
<stop offset="0.3" stop-color="#8D3422"/>
<stop offset="0.44" stop-color="#993B28"/>
<stop offset="0.86" stop-color="#681E12"/>
</linearGradient>
<linearGradient id="paint7_linear_430_80" x1="91.0727" y1="16.1944" x2="86.858" y2="19.9328" gradientUnits="userSpaceOnUse">
<stop stop-color="#346D0A"/>
<stop offset="0.03" stop-color="#3A7A07"/>
<stop offset="0.1" stop-color="#469502"/>
<stop offset="0.14" stop-color="#4A9F00"/>
<stop offset="1" stop-color="#B0E355"/>
</linearGradient>
<linearGradient id="paint8_linear_430_80" x1="117.272" y1="13.2911" x2="170.146" y2="13.2911" gradientUnits="userSpaceOnUse">
<stop stop-color="#681E12"/>
<stop offset="0.03" stop-color="#6C2014"/>
<stop offset="0.3" stop-color="#8D3422"/>
<stop offset="0.44" stop-color="#993B28"/>
<stop offset="0.88" stop-color="#681E12"/>
</linearGradient>
<linearGradient id="paint9_linear_430_80" x1="180.776" y1="10.5639" x2="209.193" y2="14.1953" gradientUnits="userSpaceOnUse">
<stop stop-color="#681E12"/>
<stop offset="0.04" stop-color="#6C2014"/>
<stop offset="0.43" stop-color="#8D3422"/>
<stop offset="0.64" stop-color="#993B28"/>
<stop offset="1" stop-color="#681E12"/>
</linearGradient>
<linearGradient id="paint10_linear_430_80" x1="43.3563" y1="9.46841" x2="48.408" y2="4.93623" gradientUnits="userSpaceOnUse">
<stop stop-color="#346D0A"/>
<stop offset="0.03" stop-color="#3A7A07"/>
<stop offset="0.1" stop-color="#469502"/>
<stop offset="0.14" stop-color="#4A9F00"/>
<stop offset="1" stop-color="#B0E355"/>
</linearGradient>
<linearGradient id="paint11_linear_430_80" x1="144.004" y1="16.7996" x2="147.653" y2="21.8941" gradientUnits="userSpaceOnUse">
<stop stop-color="#346D0A"/>
<stop offset="0.03" stop-color="#3A7A07"/>
<stop offset="0.1" stop-color="#469502"/>
<stop offset="0.14" stop-color="#4A9F00"/>
<stop offset="1" stop-color="#B0E355"/>
</linearGradient>
<linearGradient id="paint12_linear_430_80" x1="91.4179" y1="16.65" x2="94.4823" y2="20.5971" gradientUnits="userSpaceOnUse">
<stop stop-color="#346D0A"/>
<stop offset="0.03" stop-color="#3A7A07"/>
<stop offset="0.1" stop-color="#469502"/>
<stop offset="0.14" stop-color="#4A9F00"/>
<stop offset="1" stop-color="#B0E355"/>
</linearGradient>
<linearGradient id="paint13_linear_430_80" x1="79.5108" y1="8.87193" x2="73.2234" y2="6.24333" gradientUnits="userSpaceOnUse">
<stop stop-color="#346D0A"/>
<stop offset="0.03" stop-color="#3A7A07"/>
<stop offset="0.1" stop-color="#469502"/>
<stop offset="0.14" stop-color="#4A9F00"/>
<stop offset="1" stop-color="#B0E355"/>
</linearGradient>
<linearGradient id="paint14_linear_430_80" x1="165.855" y1="16.77" x2="171.507" y2="19.8474" gradientUnits="userSpaceOnUse">
<stop stop-color="#346D0A"/>
<stop offset="0.03" stop-color="#3A7A07"/>
<stop offset="0.1" stop-color="#469502"/>
<stop offset="0.14" stop-color="#4A9F00"/>
<stop offset="1" stop-color="#B0E355"/>
</linearGradient>
<linearGradient id="paint15_linear_430_80" x1="121" y1="9.4935" x2="117.195" y2="5.28242" gradientUnits="userSpaceOnUse">
<stop stop-color="#346D0A"/>
<stop offset="0.03" stop-color="#3A7A07"/>
<stop offset="0.1" stop-color="#469502"/>
<stop offset="0.14" stop-color="#4A9F00"/>
<stop offset="1" stop-color="#B0E355"/>
</linearGradient>
<linearGradient id="paint16_linear_430_80" x1="79.3689" y1="8.86787" x2="84.3599" y2="6.61085" gradientUnits="userSpaceOnUse">
<stop stop-color="#346D0A"/>
<stop offset="0.03" stop-color="#3A7A07"/>
<stop offset="0.1" stop-color="#469502"/>
<stop offset="0.14" stop-color="#4A9F00"/>
<stop offset="1" stop-color="#B0E355"/>
</linearGradient>
<linearGradient id="paint17_linear_430_80" x1="52.7899" y1="16.2206" x2="54.6842" y2="21.6209" gradientUnits="userSpaceOnUse">
<stop stop-color="#346D0A"/>
<stop offset="0.03" stop-color="#3A7A07"/>
<stop offset="0.1" stop-color="#469502"/>
<stop offset="0.14" stop-color="#4A9F00"/>
<stop offset="1" stop-color="#B0E355"/>
</linearGradient>
<linearGradient id="paint18_linear_430_80" x1="209.725" y1="15.217" x2="213.999" y2="12.8485" gradientUnits="userSpaceOnUse">
<stop stop-color="#346D0A"/>
<stop offset="0.03" stop-color="#3A7A07"/>
<stop offset="0.1" stop-color="#469502"/>
<stop offset="0.14" stop-color="#4A9F00"/>
<stop offset="1" stop-color="#B0E355"/>
</linearGradient>
<linearGradient id="paint19_linear_430_80" x1="183.587" y1="10.3579" x2="180.56" y2="4.93227" gradientUnits="userSpaceOnUse">
<stop stop-color="#346D0A"/>
<stop offset="0.03" stop-color="#3A7A07"/>
<stop offset="0.1" stop-color="#469502"/>
<stop offset="0.14" stop-color="#4A9F00"/>
<stop offset="1" stop-color="#B0E355"/>
</linearGradient>
<linearGradient id="paint20_linear_430_80" x1="148.863" y1="14.5576" x2="148.533" y2="10.2501" gradientUnits="userSpaceOnUse">
<stop stop-color="#346D0A"/>
<stop offset="0.03" stop-color="#3A7A07"/>
<stop offset="0.1" stop-color="#469502"/>
<stop offset="0.14" stop-color="#4A9F00"/>
<stop offset="1" stop-color="#B0E355"/>
</linearGradient>
<linearGradient id="paint21_linear_430_80" x1="46.9149" y1="30.821" x2="48.5053" y2="33.7833" gradientUnits="userSpaceOnUse">
<stop stop-color="#346D0A"/>
<stop offset="0.03" stop-color="#3A7A07"/>
<stop offset="0.1" stop-color="#469502"/>
<stop offset="0.14" stop-color="#4A9F00"/>
<stop offset="1" stop-color="#B0E355"/>
</linearGradient>
<linearGradient id="paint22_linear_430_80" x1="46.01" y1="47.593" x2="49.4114" y2="51.0175" gradientUnits="userSpaceOnUse">
<stop stop-color="#346D0A"/>
<stop offset="0.03" stop-color="#3A7A07"/>
<stop offset="0.1" stop-color="#469502"/>
<stop offset="0.14" stop-color="#4A9F00"/>
<stop offset="1" stop-color="#B0E355"/>
</linearGradient>
<linearGradient id="paint23_linear_430_80" x1="209.679" y1="16.0054" x2="213.904" y2="22.1704" gradientUnits="userSpaceOnUse">
<stop stop-color="#346D0A"/>
<stop offset="0.03" stop-color="#3A7A07"/>
<stop offset="0.1" stop-color="#469502"/>
<stop offset="0.14" stop-color="#4A9F00"/>
<stop offset="1" stop-color="#B0E355"/>
</linearGradient>
<linearGradient id="paint24_linear_430_80" x1="184.6" y1="9.83227" x2="187.791" y2="5.96981" gradientUnits="userSpaceOnUse">
<stop stop-color="#346D0A"/>
<stop offset="0.03" stop-color="#3A7A07"/>
<stop offset="0.1" stop-color="#469502"/>
<stop offset="0.14" stop-color="#4A9F00"/>
<stop offset="1" stop-color="#B0E355"/>
</linearGradient>
<linearGradient id="paint25_linear_430_80" x1="165.038" y1="16.9184" x2="161.439" y2="23.5182" gradientUnits="userSpaceOnUse">
<stop stop-color="#346D0A"/>
<stop offset="0.03" stop-color="#3A7A07"/>
<stop offset="0.1" stop-color="#469502"/>
<stop offset="0.14" stop-color="#4A9F00"/>
<stop offset="1" stop-color="#B0E355"/>
</linearGradient>
<linearGradient id="paint26_linear_430_80" x1="102.435" y1="17.129" x2="106.773" y2="17.9104" gradientUnits="userSpaceOnUse">
<stop stop-color="#346D0A"/>
<stop offset="0.03" stop-color="#3A7A07"/>
<stop offset="0.1" stop-color="#469502"/>
<stop offset="0.14" stop-color="#4A9F00"/>
<stop offset="1" stop-color="#B0E355"/>
</linearGradient>
<linearGradient id="paint27_linear_430_80" x1="196.185" y1="11.375" x2="193.586" y2="13.8637" gradientUnits="userSpaceOnUse">
<stop stop-color="#346D0A"/>
<stop offset="0.03" stop-color="#3A7A07"/>
<stop offset="0.1" stop-color="#469502"/>
<stop offset="0.14" stop-color="#4A9F00"/>
<stop offset="1" stop-color="#B0E355"/>
</linearGradient>
<linearGradient id="paint28_linear_430_80" x1="46.309" y1="46.9838" x2="48.9801" y2="45.0326" gradientUnits="userSpaceOnUse">
<stop stop-color="#346D0A"/>
<stop offset="0.03" stop-color="#3A7A07"/>
<stop offset="0.1" stop-color="#469502"/>
<stop offset="0.14" stop-color="#4A9F00"/>
<stop offset="1" stop-color="#B0E355"/>
</linearGradient>
<linearGradient id="paint29_linear_430_80" x1="133.697" y1="9.72827" x2="138.341" y2="6.09385" gradientUnits="userSpaceOnUse">
<stop stop-color="#346D0A"/>
<stop offset="0.03" stop-color="#3A7A07"/>
<stop offset="0.1" stop-color="#469502"/>
<stop offset="0.14" stop-color="#4A9F00"/>
<stop offset="1" stop-color="#B0E355"/>
</linearGradient>
<linearGradient id="paint30_linear_430_80" x1="92.7486" y1="13.9173" x2="95.5649" y2="12.2961" gradientUnits="userSpaceOnUse">
<stop stop-color="#346D0A"/>
<stop offset="0.03" stop-color="#3A7A07"/>
<stop offset="0.1" stop-color="#469502"/>
<stop offset="0.14" stop-color="#4A9F00"/>
<stop offset="1" stop-color="#B0E355"/>
</linearGradient>
<linearGradient id="paint31_linear_430_80" x1="43.0073" y1="9.50205" x2="39.2654" y2="6.71888" gradientUnits="userSpaceOnUse">
<stop stop-color="#346D0A"/>
<stop offset="0.03" stop-color="#3A7A07"/>
<stop offset="0.1" stop-color="#469502"/>
<stop offset="0.14" stop-color="#4A9F00"/>
<stop offset="1" stop-color="#B0E355"/>
</linearGradient>
</defs>
</svg>
